<?xml version="1.0" encoding="UTF-8" standalone="no"?>
<svg
   role="img"
   viewBox="0 0 24 24"
   version="1.1"
   id="svg1"
   sodipodi:docname="googlekeep.svg"
   inkscape:version="1.3.2 (091e20e, 2023-11-25, custom)"
   xmlns:inkscape="http://www.inkscape.org/namespaces/inkscape"
   xmlns:sodipodi="http://sodipodi.sourceforge.net/DTD/sodipodi-0.dtd"
   xmlns="http://www.w3.org/2000/svg"
   xmlns:svg="http://www.w3.org/2000/svg">
  <defs
     id="defs1" />
  <sodipodi:namedview
     id="namedview1"
     pagecolor="#ffffff"
     bordercolor="#000000"
     borderopacity="0.25"
     inkscape:showpageshadow="2"
     inkscape:pageopacity="0.0"
     inkscape:pagecheckerboard="0"
     inkscape:deskcolor="#d1d1d1"
     inkscape:zoom="37.458333"
     inkscape:cx="12"
     inkscape:cy="12"
     inkscape:window-width="1920"
     inkscape:window-height="1137"
     inkscape:window-x="1912"
     inkscape:window-y="-8"
     inkscape:window-maximized="1"
     inkscape:current-layer="svg1" />
  <title
     id="title1">Google Keep</title>
  <path
     d="M4.908 0c-.904 0-1.635.733-1.635 1.637v20.726c0 .904.732 1.637 1.635 1.637H19.09c.904 0 1.637-.733 1.637-1.637V6.5h-6.5V0H4.908zm9.819 0v6h6l-6-6zM11.97 8.229c.224 0 .571.031.765.072.2.04.576.185.842.312.828.414 1.467 1.164 1.774 2.088.168.511.188 1.34.05 1.865a3.752 3.752 0 0 1-1.277 1.952l-.25.193h-1.87c-2.134 0-1.931.042-2.478-.494a3.349 3.349 0 0 1-.984-1.844c-.148-.766-.053-1.437.32-2.203.19-.399.303-.556.65-.899.68-.679 1.513-1.037 2.458-1.042zm-1.866 7.863h3.781v1.328h-3.779v-1.328z"
     id="path1"
     style="fill:#fbbc04;fill-opacity:1" />
</svg>
