<?xml version="1.0" encoding="UTF-8" standalone="no"?>
<!-- Created with Inkscape (http://www.inkscape.org/) -->

<svg
   width="80.589287mm"
   height="80.589287mm"
   viewBox="0 0 44.283276 80.589287"
   version="1.1"
   id="svg1"
   xmlns:inkscape="http://www.inkscape.org/namespaces/inkscape"
   xmlns:sodipodi="http://sodipodi.sourceforge.net/DTD/sodipodi-0.dtd"
   xmlns="http://www.w3.org/2000/svg"
   xmlns:svg="http://www.w3.org/2000/svg">
  <sodipodi:namedview
     id="namedview1"
     pagecolor="#ffffff"
     bordercolor="#000000"
     borderopacity="0.25"
     inkscape:showpageshadow="2"
     inkscape:pageopacity="0.0"
     inkscape:pagecheckerboard="0"
     inkscape:deskcolor="#d1d1d1"
     inkscape:document-units="mm" />
  <defs
     id="defs1" />
  <g
     inkscape:label="Layer 1"
     inkscape:groupmode="layer"
     id="layer1"
     transform="translate(-5.3556277,-4.9180926)">
    <path
       id="path0"
       d="m 35.895435,5.0836966 c -0.51435,0.253471 -0.8546,0.676011 -3.2758,4.0690267 -5.12921,7.1871417 -18.7325,26.1739087 -23.6331097,32.9853387 -3.3054397,4.59449 -3.6194997,5.09905 -3.6306197,5.83327 -0.0148,0.98187 0.56092,1.515 1.8526197,1.71609 1.08161,0.16827 21.7199097,0.0706 22.2517197,-0.10531 1.03717,-0.34316 1.43325,-1.31127 0.83026,-2.02803 -0.59954,-0.71252 -0.10715,-0.67601 -9.9269,-0.73448 -9.79593,-0.0582 -9.47288,-0.0349 -9.77927,-0.7075 -0.3511,-0.77046 -0.30691,-0.84137 6.18385,-9.98167 0.47545,-0.66939 4.04574,-5.71764 7.93379,-11.21833 9.64962,-13.651179 9.1657,-13.041843 10.00125,-12.594697 0.5977,0.319881 0.57812,-0.03149 0.6358,11.483447 0.0503,10.07983 0.0624,10.60238 0.25161,10.98312 0.53076,1.06838 1.64968,1.09246 2.20795,0.0479 l 0.23919,-0.44768 -0.0101,-13.91708 c -0.008,-10.7476407 -0.0402,-14.0239764 -0.14181,-14.3869844 -0.28046,-1.001183 -1.12422,-1.423458 -1.99047,-0.996421 m -0.5035,35.2718654 c -9.321,0.0585 -9.75413,0.0698 -10.14597,0.26432 -1.13189,0.56171 -1.04035,1.82192 0.17092,2.35162 0.42359,0.18521 0.96996,0.20002 9.28714,0.24976 9.72079,0.0582 9.42075,0.0368 9.72211,0.69798 0.31141,0.68341 0.0175,1.18401 -3.90948,6.65744 -4.39526,6.12643 -11.17442,15.58343 -14.90769,20.79625 -4.0759,5.69145 -4.41721,6.08621 -5.0792,5.87613 -0.59293,-0.18812 -0.57918,0.0331 -0.67284,-10.90321 -0.0542,-6.34894 -0.12779,-10.26822 -0.19923,-10.63493 -0.30189,-1.54755 -1.88727,-1.87854 -2.55058,-0.53287 -0.22199,0.45006 -0.23998,0.66199 -0.30401,3.5478 -0.12144,5.46788 -0.10266,24.88856 0.0243,25.39338 0.25638,1.01733 1.09088,1.5748 1.99443,1.33139 0.77153,-0.2077 1.32027,-0.9017 6.31693,-7.99227 2.62546,-3.72534 5.4319,-7.70202 6.23702,-8.83709 0.80486,-1.13506 2.01666,-2.84956 2.69267,-3.81 2.92708,-4.15845 12.62909,-17.87419 13.7369,-19.42041 1.97723,-2.75934 2.24816,-3.68538 1.32397,-4.52173 -0.64479,-0.58367 -0.9271,-0.59426 -13.73743,-0.51356"
       stroke="none"
       fill="#3ab9f7"
       fill-rule="evenodd"
       style="fill:#000000;fill-opacity:1;stroke-width:0.264583" />
  </g>
</svg>
