<?xml version="1.0" encoding="UTF-8" standalone="no"?>
<svg
   role="img"
   viewBox="0 0 24 24"
   version="1.1"
   id="svg1"
   sodipodi:docname="nextcloud.svg"
   inkscape:version="1.3.2 (091e20e, 2023-11-25, custom)"
   xmlns:inkscape="http://www.inkscape.org/namespaces/inkscape"
   xmlns:sodipodi="http://sodipodi.sourceforge.net/DTD/sodipodi-0.dtd"
   xmlns="http://www.w3.org/2000/svg"
   xmlns:svg="http://www.w3.org/2000/svg">
  <defs
     id="defs1" />
  <sodipodi:namedview
     id="namedview1"
     pagecolor="#ffffff"
     bordercolor="#000000"
     borderopacity="0.25"
     inkscape:showpageshadow="2"
     inkscape:pageopacity="0.0"
     inkscape:pagecheckerboard="0"
     inkscape:deskcolor="#d1d1d1"
     inkscape:zoom="37.458333"
     inkscape:cx="12"
     inkscape:cy="12"
     inkscape:window-width="1920"
     inkscape:window-height="1137"
     inkscape:window-x="1912"
     inkscape:window-y="-8"
     inkscape:window-maximized="1"
     inkscape:current-layer="svg1" />
  <title
     id="title1">Nextcloud</title>
  <path
     d="M12.018 6.537c-2.5 0-4.6 1.712-5.241 4.015-.56-1.232-1.793-2.105-3.225-2.105A3.569 3.569 0 0 0 0 12a3.569 3.569 0 0 0 3.552 3.553c1.432 0 2.664-.874 3.224-2.106.641 2.304 2.742 4.016 5.242 4.016 2.487 0 4.576-1.693 5.231-3.977.569 1.21 1.783 2.067 3.198 2.067A3.568 3.568 0 0 0 24 12a3.569 3.569 0 0 0-3.553-3.553c-1.416 0-2.63.858-3.199 2.067-.654-2.284-2.743-3.978-5.23-3.977zm0 2.085c1.878 0 3.378 1.5 3.378 3.378 0 1.878-1.5 3.378-3.378 3.378A3.362 3.362 0 0 1 8.641 12c0-1.878 1.5-3.378 3.377-3.378zm-8.466 1.91c.822 0 1.467.645 1.467 1.468s-.644 1.467-1.467 1.468A1.452 1.452 0 0 1 2.085 12c0-.823.644-1.467 1.467-1.467zm16.895 0c.823 0 1.468.645 1.468 1.468s-.645 1.468-1.468 1.468A1.452 1.452 0 0 1 18.98 12c0-.823.644-1.467 1.467-1.467z"
     id="path1"
     style="fill:#0082c8;fill-opacity:1" />
</svg>
