<?xml version="1.0" encoding="UTF-8" standalone="no"?>
<svg
   role="img"
   viewBox="0 0 24 24"
   version="1.1"
   id="svg1"
   sodipodi:docname="paperlessngx.svg"
   inkscape:version="1.3.2 (091e20e, 2023-11-25, custom)"
   xmlns:inkscape="http://www.inkscape.org/namespaces/inkscape"
   xmlns:sodipodi="http://sodipodi.sourceforge.net/DTD/sodipodi-0.dtd"
   xmlns="http://www.w3.org/2000/svg"
   xmlns:svg="http://www.w3.org/2000/svg">
  <defs
     id="defs1" />
  <sodipodi:namedview
     id="namedview1"
     pagecolor="#ffffff"
     bordercolor="#000000"
     borderopacity="0.25"
     inkscape:showpageshadow="2"
     inkscape:pageopacity="0.0"
     inkscape:pagecheckerboard="0"
     inkscape:deskcolor="#d1d1d1"
     inkscape:zoom="37.458333"
     inkscape:cx="12"
     inkscape:cy="12"
     inkscape:window-width="1920"
     inkscape:window-height="1137"
     inkscape:window-x="1912"
     inkscape:window-y="-8"
     inkscape:window-maximized="1"
     inkscape:current-layer="svg1" />
  <title
     id="title1">Paperless-ngx</title>
  <path
     d="M6.338 23.028c-.117-.56-.353-1.678-.382-1.678-4.977-2.975-4.388-8.128-2.739-11.073.353 3.71 6.92 6.273 3.092 10.808-.03.059.177.765.353 1.413.766-1.296 1.915-2.856 1.856-3.004C3.806 8.01 18.53 7.126 21.592 0c1.385 6.89-.706 17.55-12.544 20.26-.06.03-2.15 3.71-2.238 3.74 0-.059-.884-.03-.766-.324.059-.177.177-.412.294-.648zm-.147-2.768c1.502-1.737-.265-4.712-1.325-5.683 1.796 3.092 1.679 4.888 1.325 5.683z"
     id="path1"
     style="fill:#17541f;fill-opacity:1" />
</svg>
